<?xml version="1.0" encoding="utf-8"?>
<!-- Generator: Adobe Illustrator 15.1.0, SVG Export Plug-In . SVG Version: 6.00 Build 0)  -->
<!DOCTYPE svg PUBLIC "-//W3C//DTD SVG 1.1//EN" "http://www.w3.org/Graphics/SVG/1.1/DTD/svg11.dtd">
<svg version="1.1" id="Layer_1" xmlns="http://www.w3.org/2000/svg" xmlns:xlink="http://www.w3.org/1999/xlink" x="0px" y="0px"
	 width="32px" height="32px" viewBox="0 0 32 32" enable-background="new 0 0 32 32" xml:space="preserve">
<path d="M16,0c8.837,0,16,7.163,16,16c0,8.837-7.163,16-16,16C7.164,32,0,24.837,0,16C0,7.163,7.164,0,16,0z"/>
<g>
	<g>
		<path fill-rule="evenodd" clip-rule="evenodd" fill="#FFFFFF" d="M22.998,11.782C18.448,14.217,16,9,16,9S13.55,14.217,9,11.782
			c0,0-0.175,8.999,6.999,13.215C23.173,20.781,22.998,11.782,22.998,11.782z"/>
	</g>
</g>
<path fill-rule="evenodd" clip-rule="evenodd" d="M16.25,13c0,0,0.078,3.743,3.748,3.743c0,0,0.016,0.546,0,0.499
	s-3.748,0.031-3.748,3.742h-0.5c0,0-0.016-3.742-3.75-3.742v-0.499c0,0,3.75-0.031,3.75-3.743"/>
</svg>
