<?xml version="1.0" encoding="utf-8"?>
<!-- Generator: Adobe Illustrator 15.1.0, SVG Export Plug-In . SVG Version: 6.00 Build 0)  -->
<!DOCTYPE svg PUBLIC "-//W3C//DTD SVG 1.1//EN" "http://www.w3.org/Graphics/SVG/1.1/DTD/svg11.dtd">
<svg version="1.1" id="Layer_1" xmlns="http://www.w3.org/2000/svg" xmlns:xlink="http://www.w3.org/1999/xlink" x="0px" y="0px"
	 width="32px" height="32px" viewBox="0 0 32 32" enable-background="new 0 0 32 32" xml:space="preserve">
<path d="M16,0c8.836,0,16,7.163,16,16C32,24.836,24.836,32,16,32C7.163,32,0,24.836,0,16C0,7.163,7.163,0,16,0z"/>
<g>
	<g>
		<path fill="#FFFFFF" d="M9.134,18.75l1.833-2.052l-1.215-1.024l-3.667,4.103l4.253,3.582l0.917-1.026l-1.823-1.536l8.526-0.01
			l0.917-1.025l-1.215-1.023L9.134,18.75z M22.25,8.634l-1.215,1.023l1.833,2.051l-8.526-0.01l-1.215,1.023l0.917,1.026l8.526,0.01
			l-1.823,1.535l0.917,1.026l4.253-3.582L22.25,8.634z"/>
	</g>
</g>
</svg>
