<?xml version="1.0" encoding="utf-8"?>
<!-- Generator: Adobe Illustrator 15.1.0, SVG Export Plug-In . SVG Version: 6.00 Build 0)  -->
<!DOCTYPE svg PUBLIC "-//W3C//DTD SVG 1.1//EN" "http://www.w3.org/Graphics/SVG/1.1/DTD/svg11.dtd">
<svg version="1.1" id="Layer_1" xmlns="http://www.w3.org/2000/svg" xmlns:xlink="http://www.w3.org/1999/xlink" x="0px" y="0px"
	 width="32px" height="31.999px" viewBox="0 0 32 31.999" enable-background="new 0 0 32 31.999" xml:space="preserve">
<path fill-rule="evenodd" clip-rule="evenodd" d="M16,0c8.837,0,16,7.163,16,16s-7.163,16-16,16c-8.836,0-16-7.163-16-16
	S7.164,0,16,0z"/>
<path fill-rule="evenodd" clip-rule="evenodd" fill="#FFFFFF" d="M16.016,5.745c5.832,0,10.56,4.728,10.56,10.56
	s-4.728,10.561-10.56,10.561c-5.832,0-10.56-4.729-10.56-10.561S10.185,5.745,16.016,5.745z"/>
<path fill-rule="evenodd" clip-rule="evenodd" d="M16.016,8.385c4.375,0,7.92,3.546,7.92,7.92c0,4.375-3.545,7.92-7.92,7.92
	c-4.374,0-7.919-3.545-7.919-7.92C8.097,11.931,11.642,8.385,16.016,8.385z"/>
</svg>
