<?xml version="1.0" encoding="utf-8"?>
<!-- Generator: Adobe Illustrator 15.1.0, SVG Export Plug-In . SVG Version: 6.00 Build 0)  -->
<!DOCTYPE svg PUBLIC "-//W3C//DTD SVG 1.1//EN" "http://www.w3.org/Graphics/SVG/1.1/DTD/svg11.dtd">
<svg version="1.1" xmlns="http://www.w3.org/2000/svg" xmlns:xlink="http://www.w3.org/1999/xlink" x="0px" y="0px"
	 width="47.994px" height="33.116px" viewBox="0 0 47.994 33.116" enable-background="new 0 0 47.994 33.116" xml:space="preserve">
<g id="Layer_3">
	<path fill-rule="evenodd" clip-rule="evenodd" fill="#FFEE00" d="M1,16.118c0,0-1,0.554-1,1c0,0.314,0,0.652,0,1c0,0.633,1,1,1,1
		s13.186-1.688,16.997-3c0,0-0.543,5.999,8.999,5.999c5.063,0,12.124-2.999,19.998-2.999c0,0,1-0.523,1-1c0-0.35,0-0.633,0-1
		c0-0.564-1-1-1-1c0.006,0.005-4.704,0.074-7.999,1c-7.487,2.104-15.436,5.249-17.998,0c0,0,20.515-7.904,14.998-11.999
		c-6.132-4.551-17.998,7.999-17.998,7.999S10.561,16.118,1,16.118z"/>
	<path fill-rule="evenodd" clip-rule="evenodd" fill="#EDEDED" d="M20.997,14.118c-0.134,1.808,13.436-6.499,11.998-7.999
		C31.559,4.62,21.122,12.431,20.997,14.118z"/>
</g>
</svg>
