<?xml version="1.0" encoding="utf-8"?>
<!-- Generator: Adobe Illustrator 15.1.0, SVG Export Plug-In . SVG Version: 6.00 Build 0)  -->
<!DOCTYPE svg PUBLIC "-//W3C//DTD SVG 1.1//EN" "http://www.w3.org/Graphics/SVG/1.1/DTD/svg11.dtd">
<svg version="1.1" xmlns="http://www.w3.org/2000/svg" xmlns:xlink="http://www.w3.org/1999/xlink" x="0px" y="0px"
	 width="47.994px" height="33.116px" viewBox="0 0 47.994 33.116" enable-background="new 0 0 47.994 33.116" xml:space="preserve">
<g id="Layer_2">
	<path fill-rule="evenodd" clip-rule="evenodd" fill="#F77700" d="M1,16.149c3.364,0,11.66,0.178,21.997-4c0.744-0.301,0,0,0,0
		c-0.833-6.583,9.697-11.041,12.998-9.999c8.035,2.536-9.999,11.999-9.999,11.999c5.635,6.354,20.998,2,20.998,2s1,0.479,1,1
		c0,0.348,0,0.648,0,1c0,0.535-1,1-1,1c-8.916,2.582-16.998,0-16.998,0c1.166,2.582,0.5,5.166-2,7.998c-2.5,2.834-17.998,6-17.998-2
		c0-7.998,15.998-7.998,15.998-7.998l-1.999-2c0,0-1.584-0.417-7.999,2c-6.416,2.416-14.998,2-14.998,2s-1-0.508-1-1
		c0-0.363,0-0.629,0-1C0,16.612,1,16.149,1,16.149z"/>
	<g>
		<g>
			<path fill-rule="evenodd" clip-rule="evenodd" fill="#EDEDED" d="M33.995,4.15c-2.911-0.875-10.869,5.22-7.999,6.999
				C28.171,12.497,37.389,5.17,33.995,4.15z M14.183,26.858c5.216,4.387,17.19-3.467,12.925-7.178
				C24.705,17.591,8.561,22.13,14.183,26.858z"/>
		</g>
	</g>
</g>
</svg>
