<?xml version="1.0" encoding="utf-8"?>
<!-- Generator: Adobe Illustrator 15.1.0, SVG Export Plug-In . SVG Version: 6.00 Build 0)  -->
<!DOCTYPE svg PUBLIC "-//W3C//DTD SVG 1.1//EN" "http://www.w3.org/Graphics/SVG/1.1/DTD/svg11.dtd">
<svg version="1.1" id="Layer_1" xmlns="http://www.w3.org/2000/svg" xmlns:xlink="http://www.w3.org/1999/xlink" x="0px" y="0px"
	 width="31.996px" height="31.996px" viewBox="0 0 31.996 31.996" enable-background="new 0 0 31.996 31.996" xml:space="preserve">
<path fill-rule="evenodd" clip-rule="evenodd" fill="#DE6262" d="M16.031-0.065c8.835,0,15.998,7.163,15.998,15.998
	c0,8.835-7.163,15.998-15.998,15.998c-8.835,0-15.998-7.163-15.998-15.998C0.033,7.097,7.195-0.065,16.031-0.065z"/>
<g>
	<g>
		<path fill-rule="evenodd" clip-rule="evenodd" fill="#FFFFFF" d="M4.5,20.558c0,0,3.254,0.005,3.254,0
			c0-3.499,1.875-5.781,4.282-6.809c0.006-0.015,0.578-3.211,0.598-3.211C7.97,11.639,4.5,15.558,4.5,20.558z M18.602,10.792
			c0.02,0,0.592,3.16,0.598,3.175c2.408,1.016,4.282,3.273,4.282,6.732c0,0.005,3.254,0,3.254,0
			C26.736,15.755,23.265,11.881,18.602,10.792z M15.347,7l-2.169,9.762c0,0,0.379-1.627,2.169-1.627h0.542
			c1.788,0,2.169,1.627,2.169,1.627L15.889,7H15.347z M15.618,16.762c-1.348,0-2.441,1.093-2.441,2.44s1.093,2.44,2.441,2.44
			s2.44-1.093,2.44-2.44S16.966,16.762,15.618,16.762z"/>
	</g>
</g>
</svg>
