<?xml version="1.0" encoding="utf-8"?>
<!-- Generator: Adobe Illustrator 15.1.0, SVG Export Plug-In . SVG Version: 6.00 Build 0)  -->
<!DOCTYPE svg PUBLIC "-//W3C//DTD SVG 1.1//EN" "http://www.w3.org/Graphics/SVG/1.1/DTD/svg11.dtd">
<svg version="1.1" id="Layer_1" xmlns="http://www.w3.org/2000/svg" xmlns:xlink="http://www.w3.org/1999/xlink" x="0px" y="0px"
	 width="31.996px" height="31.996px" viewBox="0 0 31.996 31.996" enable-background="new 0 0 31.996 31.996" xml:space="preserve">
<path fill-rule="evenodd" clip-rule="evenodd" fill="#DE6262" d="M15.998,0c8.835,0,15.998,7.163,15.998,15.998
	c0,8.835-7.163,15.998-15.998,15.998C7.163,31.996,0,24.833,0,15.998C0,7.163,7.163,0,15.998,0z"/>
<g>
	<g>
		<path fill-rule="evenodd" clip-rule="evenodd" fill="#FFFFFF" d="M12.701,14.757l2.056-2.056h0.823l2.056-2.056h-4.112
			l-2.879,2.878v4.112l2.056-2.056V14.757z M18.83,16.813l-2.057,2.056h-0.822l-2.056,2.057h4.112l2.878-2.879v-4.112l-2.056,2.056
			V16.813z M16.402,15.168l1.233,0.411l4.935-4.935l-0.411-1.234L20.926,9l-4.935,4.935L16.402,15.168z M15.168,16.402l-1.233-0.412
			L9,20.926l0.411,1.233l1.233,0.411l4.935-4.935L15.168,16.402z"/>
	</g>
</g>
</svg>
