<?xml version="1.0" encoding="utf-8"?>
<!-- Generator: Adobe Illustrator 15.1.0, SVG Export Plug-In . SVG Version: 6.00 Build 0)  -->
<!DOCTYPE svg PUBLIC "-//W3C//DTD SVG 1.1//EN" "http://www.w3.org/Graphics/SVG/1.1/DTD/svg11.dtd">
<svg version="1.1" id="Layer_1" xmlns="http://www.w3.org/2000/svg" xmlns:xlink="http://www.w3.org/1999/xlink" x="0px" y="0px"
	 width="52px" height="52px" viewBox="0 0 52 52" enable-background="new 0 0 52 52" xml:space="preserve">
<g>
	<g>
		<path fill-rule="evenodd" clip-rule="evenodd" fill="#d7d6cb" d="M39.996,28.997c0-0.552-0.447-1-1-1h-6.397l-2.195-6.324
			c2.165-1.432,3.595-3.885,3.595-6.675c0-4.077-3.055-7.436-7-7.929V1c0-0.552-0.448-1-1.001-1c-0.552,0-0.999,0.448-0.999,1v6.068
			c-3.944,0.493-7,3.852-7,7.93c0,2.79,1.43,5.244,3.595,6.675l-2.195,6.324H13c-0.552,0-1,0.448-1,1s0.448,1,1,1h5.704
			l-5.711,16.449L15.051,52l7.639-22.003h6.616L36.945,52l2.059-5.554l-5.711-16.449h5.703
			C39.549,29.997,39.996,29.549,39.996,28.997z M23.384,27.997l1.752-5.047c0.283,0.03,0.57,0.048,0.861,0.048
			c0.292,0,0.579-0.018,0.862-0.048l1.752,5.047H23.384z"/>
	</g>
</g>
<path fill-rule="evenodd" clip-rule="evenodd" fill="#F2F2EA" d="M25.999,9c3.313,0,6,2.686,6,5.998c0,3.314-2.687,6-6,6
	c-3.313,0-5.999-2.686-5.999-6C20,11.686,22.687,9,25.999,9z"/>
</svg>
