<?xml version="1.0" encoding="utf-8"?>
<!-- Generator: Adobe Illustrator 15.1.0, SVG Export Plug-In . SVG Version: 6.00 Build 0)  -->
<!DOCTYPE svg PUBLIC "-//W3C//DTD SVG 1.1//EN" "http://www.w3.org/Graphics/SVG/1.1/DTD/svg11.dtd">
<svg version="1.1" xmlns="http://www.w3.org/2000/svg" xmlns:xlink="http://www.w3.org/1999/xlink" x="0px" y="0px"
	 width="47.994px" height="33.116px" viewBox="0 0 47.994 33.116" enable-background="new 0 0 47.994 33.116" xml:space="preserve">
<g id="Layer_1">
	<path fill-rule="evenodd" clip-rule="evenodd" fill="#EE0000" d="M1,18.118c0,0-1,0.445-1,0c0-0.344,0-0.627,0-1c0-0.593,1-2,1-2
		s10.415-3.833,16.997-5.999c0,0-2.165-3.748,4-7.999c4.833-3.333,10.332,1.5,5.999,4.999c-4.333,3.5-6.999,4-6.999,4
		s0.036,0.917,2,2c0,0,9.165-9.416,16.998-6.999c7.832,2.416-4.25,13.082-10.999,14.999c0,0,6.01-0.416,10.999-5
		c2.715-2.495,5.975-1.06,6.999,0c0,0,1,0.523,1,1c0,0.32,0,0.658,0,1c0,0.605-1,1-1,1s-2.433-3.74-6.999,0
		c-2.909,2.382-8.999,4.999-8.999,4.999s4.713,9.999-6,9.999c-6.999,0-8.998-1.584-8.998-7.999c0,0-8.1,4.024-10.999,0.999
		c-3.023-3.154,1.302-11.029,5.999-9.998c4.098,0.899,3,1,3,1s4.237,2.5,6.999-3c0,0-0.667-4.083-4.999-2
		C13.29,13.42,1,18.118,1,18.118z"/>
	<g>
		<g>
			<path fill-rule="evenodd" clip-rule="evenodd" fill="#EDEDED" d="M19.997,8.119c1.749,0.764,8.298-3.8,5.999-5
				C22.772,1.438,18.682,7.544,19.997,8.119z M6.999,22.117c-1.38,4.811,8.254,1.603,7.999-0.999
				C14.808,19.181,8.397,17.239,6.999,22.117z M37.995,7.119c-2.239-0.224-17.886,6.292-10.999,8.999
				c2.81,1.104,5.499,0.875,9.999-4C39.214,9.715,41.744,7.494,37.995,7.119z M26.996,20.118c0,0-2.624-0.625-3.999-4
				c0,0-2.711,1.97-4,4C18.856,20.339,26.996,20.118,26.996,20.118z M19.997,22.117c-1.1-0.238-2,1.875-2,3
				c0,5.374,11.465,8.694,10.999,1.999C28.543,20.603,25.371,23.284,19.997,22.117z"/>
		</g>
	</g>
</g>
</svg>
