<?xml version="1.0" encoding="utf-8"?>
<!-- Generator: Adobe Illustrator 15.1.0, SVG Export Plug-In . SVG Version: 6.00 Build 0)  -->
<!DOCTYPE svg PUBLIC "-//W3C//DTD SVG 1.1//EN" "http://www.w3.org/Graphics/SVG/1.1/DTD/svg11.dtd">
<svg version="1.1" id="Layer_1" xmlns="http://www.w3.org/2000/svg" xmlns:xlink="http://www.w3.org/1999/xlink" x="0px" y="0px"
	 width="52px" height="52px" viewBox="0 0 52 52" enable-background="new 0 0 52 52" xml:space="preserve">
<g>
	<g>
		<path fill-rule="evenodd" clip-rule="evenodd" fill="#F2F2EA" d="M43.233,30.28c3.697-2.313,6.169-6.438,6.169-11.155
			C49.402,11.876,43.588,6,36.416,6c-3.566,0-6.797,1.453-9.143,3.806c4.322,5.046,5.061,12.788-0.293,18.336
			c0.865,0.924,1.863,1.716,2.959,2.355l-2.637,5.699L33.16,48H52L43.233,30.28z M28.568,19.125C28.568,11.876,22.754,6,15.583,6
			C8.411,6,2.597,11.876,2.597,19.125c0,4.718,2.471,8.842,6.168,11.155L0,48h31.166L22.4,30.28
			C26.097,27.967,28.568,23.842,28.568,19.125z"/>
	</g>
</g>
<g>
	<g>
		<path fill-rule="evenodd" clip-rule="evenodd" fill="#6371DB" d="M12.982,33.553l2.604,6.57l2.605-6.57l-2.605-3.941
			L12.982,33.553z M36.42,29.611l-2.604,3.941l2.604,6.57l2.604-6.57L36.42,29.611z"/>
	</g>
</g>
</svg>
