<?xml version="1.0" encoding="utf-8"?>
<!-- Generator: Adobe Illustrator 15.1.0, SVG Export Plug-In . SVG Version: 6.00 Build 0)  -->
<!DOCTYPE svg PUBLIC "-//W3C//DTD SVG 1.1//EN" "http://www.w3.org/Graphics/SVG/1.1/DTD/svg11.dtd">
<svg version="1.1" id="Layer_1" xmlns="http://www.w3.org/2000/svg" xmlns:xlink="http://www.w3.org/1999/xlink" x="0px" y="0px"
	 width="24px" height="24px" viewBox="0 0 24 24" enable-background="new 0 0 24 24" xml:space="preserve">
<path fill-rule="evenodd" clip-rule="evenodd" fill="#DE6262" d="M12,0.001c6.627,0,11.999,5.372,11.999,11.999
	c0,6.625-5.372,11.999-11.999,11.999C5.374,23.998,0.002,18.625,0.002,12C0.002,5.373,5.374,0.001,12,0.001z"/>
<g>
	<g>
		<path fill-rule="evenodd" clip-rule="evenodd" fill="#FFFFFF" d="M16.799,18.399l-2.703-5.407C15.234,12.288,16,11.038,16,9.6
			c0-2.209-1.791-4-4-4C9.791,5.601,8,7.391,8,9.6c0,1.438,0.765,2.688,1.903,3.393l-2.703,5.406H16.799z"/>
	</g>
</g>
</svg>
